<svg width="32" height="29" viewBox="0 0 32 29" fill="none" xmlns="http://www.w3.org/2000/svg">
<path d="M3.66667 27.6667C2.93333 27.6667 2.30578 27.4058 1.784 26.884C1.26222 26.3622 1.00089 25.7342 1 25V9C1 8.26667 1.26133 7.63911 1.784 7.11733C2.30667 6.59556 2.93422 6.33422 3.66667 6.33333H7.86667L10.3333 3.66667H18.3333V6.33333H11.5L9.06667 9H3.66667V25H25V13H27.6667V25C27.6667 25.7333 27.4058 26.3613 26.884 26.884C26.3622 27.4067 25.7342 27.6676 25 27.6667H3.66667ZM25 9V6.33333H22.3333V3.66667H25V1H27.6667V3.66667H30.3333V6.33333H27.6667V9H25ZM14.3333 23C16 23 17.4169 22.4169 18.584 21.2507C19.7511 20.0844 20.3342 18.6676 20.3333 17C20.3324 15.3324 19.7493 13.916 18.584 12.7507C17.4187 11.5853 16.0018 11.0018 14.3333 11C12.6649 10.9982 11.2484 11.5818 10.084 12.7507C8.91956 13.9196 8.336 15.336 8.33333 17C8.33067 18.664 8.91422 20.0809 10.084 21.2507C11.2538 22.4204 12.6702 23.0036 14.3333 23ZM14.3333 20.3333C13.4 20.3333 12.6111 20.0111 11.9667 19.3667C11.3222 18.7222 11 17.9333 11 17C11 16.0667 11.3222 15.2778 11.9667 14.6333C12.6111 13.9889 13.4 13.6667 14.3333 13.6667C15.2667 13.6667 16.0556 13.9889 16.7 14.6333C17.3444 15.2778 17.6667 16.0667 17.6667 17C17.6667 17.9333 17.3444 18.7222 16.7 19.3667C16.0556 20.0111 15.2667 20.3333 14.3333 20.3333Z" fill="#B3B3B3"/>
</svg>
