<svg width="24" height="24" viewBox="0 0 24 24" fill="none" xmlns="http://www.w3.org/2000/svg">
<path d="M4.80001 7.99996C5.36171 7.99994 5.91352 7.85208 6.39996 7.57122C6.88641 7.29036 7.29036 6.88641 7.57121 6.39996H19.2C19.6244 6.39996 20.0313 6.23139 20.3314 5.93133C20.6314 5.63127 20.8 5.2243 20.8 4.79996C20.8 4.37561 20.6314 3.96864 20.3314 3.66859C20.0313 3.36853 19.6244 3.19996 19.2 3.19996H7.57121C7.29034 2.71353 6.88638 2.30961 6.39994 2.02878C5.91349 1.74794 5.3617 1.6001 4.80001 1.6001C4.23832 1.6001 3.68652 1.74794 3.20008 2.02878C2.71363 2.30961 2.30968 2.71353 2.02881 3.19996H4.80001V6.39996H2.02881C2.30966 6.88641 2.71361 7.29036 3.20005 7.57122C3.6865 7.85208 4.23831 7.99994 4.80001 7.99996ZM3.43361 14.9664C3.28406 15.1163 3.20005 15.3194 3.20001 15.5312V21.6C3.20001 21.8121 3.28429 22.0156 3.43432 22.1656C3.58435 22.3157 3.78784 22.4 4.00001 22.4H6.40001C6.61218 22.4 6.81566 22.3157 6.96569 22.1656C7.11572 22.0156 7.20001 21.8121 7.20001 21.6V20.8H16.8V21.6C16.8 21.8121 16.8843 22.0156 17.0343 22.1656C17.1844 22.3157 17.3878 22.4 17.6 22.4H20C20.2122 22.4 20.4157 22.3157 20.5657 22.1656C20.7157 22.0156 20.8 21.8121 20.8 21.6V15.5312C20.8 15.3194 20.716 15.1163 20.5664 14.9664L19.2 13.6L17.0336 9.98876C16.9624 9.86993 16.8616 9.77163 16.741 9.70347C16.6204 9.63532 16.4841 9.59965 16.3456 9.59996H7.65441C7.51615 9.59993 7.38025 9.63573 7.25995 9.70387C7.13966 9.77201 7.03907 9.87016 6.96801 9.98876L4.80001 13.6L3.43361 14.9664ZM17.8144 14.4H6.18561L8.10561 11.2H15.8944L17.8144 14.4ZM8.80001 17.3248V17.92C8.80001 18.0473 8.74944 18.1694 8.65942 18.2594C8.5694 18.3494 8.44731 18.4 8.32001 18.4H5.28001C5.1527 18.4 5.03061 18.3494 4.9406 18.2594C4.85058 18.1694 4.80001 18.0473 4.80001 17.92V16.5856C4.80004 16.5145 4.81584 16.4444 4.84625 16.3802C4.87666 16.3161 4.92094 16.2594 4.97589 16.2144C5.03083 16.1694 5.09508 16.1372 5.16399 16.12C5.23291 16.1028 5.30477 16.1012 5.37441 16.1152L8.28641 16.6976C8.43126 16.7267 8.56155 16.8051 8.65517 16.9195C8.74879 17.0338 8.79996 17.177 8.80001 17.3248ZM19.2 16.7808V17.92C19.2 18.0473 19.1494 18.1694 19.0594 18.2594C18.9694 18.3494 18.8473 18.4 18.72 18.4H15.68C15.5527 18.4 15.4306 18.3494 15.3406 18.2594C15.2506 18.1694 15.2 18.0473 15.2 17.92V17.1936C15.2001 17.0827 15.2385 16.9752 15.3088 16.8895C15.3791 16.8037 15.4769 16.745 15.5856 16.7232L18.4336 16.1536C18.5265 16.1348 18.6224 16.137 18.7143 16.1598C18.8063 16.1827 18.892 16.2257 18.9653 16.2857C19.0387 16.3457 19.0977 16.4212 19.1383 16.5068C19.1789 16.5924 19.2 16.686 19.2 16.7808Z" fill="#2377FB"/>
</svg>
