<svg width="24" height="24" viewBox="0 0 24 24" fill="none" xmlns="http://www.w3.org/2000/svg">
<path d="M17.6848 8.14198C17.6015 8.05865 17.5368 7.96298 17.4908 7.85498C17.4448 7.74698 17.4221 7.63531 17.4228 7.51998C17.4228 7.36198 17.4661 7.21198 17.5528 7.06998C17.6395 6.92798 17.7535 6.80898 17.8948 6.71298C18.1121 6.56098 18.3498 6.44098 18.6078 6.35298C18.8658 6.26498 19.1205 6.17998 19.3718 6.09798C19.4318 6.08131 19.4885 6.07631 19.5418 6.08298C19.5951 6.08965 19.6388 6.10965 19.6728 6.14298C19.7181 6.18765 19.7368 6.28865 19.7288 6.44598C19.6455 6.70398 19.5605 6.96331 19.4738 7.22398C19.3871 7.48398 19.2645 7.72165 19.1058 7.93698C19.0145 8.07365 18.8978 8.18565 18.7558 8.27298C18.6138 8.36031 18.4638 8.40365 18.3058 8.40298C18.1911 8.40298 18.0798 8.38065 17.9718 8.33598C17.8631 8.28998 17.7681 8.22531 17.6848 8.14198ZM5.26381 19.52C4.81981 19.52 4.44048 19.362 4.12581 19.046C3.81114 18.7293 3.65381 18.349 3.65381 17.905V5.97998C3.65381 5.53598 3.81214 5.15565 4.12881 4.83898C4.44548 4.52231 4.82581 4.36398 5.26981 4.36398H10.1198C10.5645 4.36398 10.9441 4.52231 11.2588 4.83898C11.5735 5.15565 11.7308 5.53565 11.7308 5.97898V13.636C11.8935 13.522 12.0775 13.4226 12.2828 13.338C12.4881 13.2533 12.7271 13.211 12.9998 13.211C13.6298 13.211 14.1655 13.4316 14.6068 13.873C15.0481 14.3136 15.2688 14.8493 15.2688 15.48V17.249C15.2688 17.609 15.3905 17.9103 15.6338 18.153C15.8771 18.3963 16.1788 18.518 16.5388 18.518C16.8988 18.518 17.2001 18.3963 17.4428 18.153C17.6855 17.9096 17.8071 17.6083 17.8078 17.249V12.441H16.9228V11.305C16.1381 10.9603 15.4998 10.45 15.0078 9.77398C14.5158 9.09798 14.2695 8.34598 14.2688 7.51798C14.2688 6.39131 14.6628 5.43665 15.4508 4.65398C16.2388 3.87131 17.1911 3.47998 18.3078 3.47998C19.4345 3.47998 20.3891 3.87131 21.1718 4.65398C21.9545 5.43665 22.3458 6.39131 22.3458 7.51798C22.3458 8.34665 22.0998 9.09865 21.6078 9.77398C21.1158 10.4493 20.4771 10.9593 19.6918 11.304V12.441H18.8078V17.249C18.8078 17.8796 18.5875 18.4156 18.1468 18.857C17.7055 19.2976 17.1701 19.518 16.5408 19.518C15.9115 19.518 15.3755 19.2976 14.9328 18.857C14.4901 18.4163 14.2688 17.8803 14.2688 17.249V15.479C14.2688 15.1196 14.1471 14.8183 13.9038 14.575C13.6605 14.3323 13.3588 14.211 12.9988 14.211C12.6388 14.211 12.3375 14.3326 12.0948 14.576C11.8521 14.8193 11.7308 15.1206 11.7308 15.48V17.903C11.7308 18.347 11.5725 18.727 11.2558 19.043C10.9391 19.3596 10.5585 19.518 10.1138 19.518L5.26381 19.52ZM18.3098 10.559C19.1545 10.559 19.8718 10.2633 20.4618 9.67198C21.0511 9.08065 21.3458 8.36265 21.3458 7.51798C21.3458 6.67331 21.0501 5.95598 20.4588 5.36598C19.8675 4.77598 19.1495 4.48131 18.3048 4.48198C17.4601 4.48265 16.7431 4.77831 16.1538 5.36898C15.5645 5.95965 15.2695 6.67731 15.2688 7.52198C15.2681 8.36665 15.5638 9.08398 16.1558 9.67398C16.7478 10.264 17.4658 10.559 18.3098 10.559ZM5.26981 18.519H10.1158C10.2951 18.519 10.4425 18.4613 10.5578 18.346C10.6731 18.2306 10.7308 18.0833 10.7308 17.904V15.442L9.31581 16.858C9.19714 16.976 9.07248 17.0286 8.94181 17.016C8.81181 17.0033 8.70047 16.9513 8.60781 16.86C8.51447 16.768 8.46181 16.6553 8.44981 16.522C8.43781 16.3886 8.49047 16.2626 8.60781 16.144L10.7308 14.021V11.02L9.31581 12.435C9.19714 12.5536 9.07248 12.6066 8.94181 12.594C8.81181 12.5813 8.70047 12.529 8.60781 12.437C8.51514 12.345 8.46247 12.2323 8.44981 12.099C8.43714 11.9656 8.48981 11.84 8.60781 11.722L10.7308 9.59898V6.59598L9.31581 8.01198C9.19714 8.12998 9.07248 8.18265 8.94181 8.16998C8.81181 8.15731 8.70047 8.10498 8.60781 8.01298C8.51514 7.92098 8.46247 7.80831 8.44981 7.67498C8.43714 7.54165 8.48981 7.41598 8.60781 7.29798L10.3678 5.53798C10.3165 5.47398 10.2555 5.42931 10.1848 5.40398C10.1141 5.37865 10.0275 5.36598 9.92481 5.36598H5.45881C5.35681 5.36598 5.27048 5.37865 5.19981 5.40398C5.12914 5.42931 5.06814 5.47431 5.01681 5.53898L6.77681 7.29798C6.89481 7.41598 6.94748 7.53965 6.93481 7.66898C6.92214 7.79831 6.86948 7.90898 6.77681 8.00098C6.68414 8.09298 6.57248 8.14731 6.44181 8.16398C6.31114 8.18065 6.18681 8.12998 6.06881 8.01198L4.65381 6.59598V9.59798L6.77681 11.721C6.89481 11.839 6.94748 11.9626 6.93481 12.092C6.92214 12.2213 6.86948 12.332 6.77681 12.424C6.68414 12.516 6.57248 12.5703 6.44181 12.587C6.31114 12.6036 6.18681 12.553 6.06881 12.435L4.65381 11.019V14.021L6.77681 16.144C6.89481 16.262 6.94748 16.3856 6.93481 16.515C6.92214 16.6443 6.86948 16.755 6.77681 16.847C6.68414 16.939 6.57248 16.993 6.44181 17.009C6.31114 17.025 6.18681 16.9746 6.06881 16.858L4.65381 15.442V17.904C4.65381 18.0833 4.71148 18.2306 4.82681 18.346C4.94214 18.4613 5.09048 18.519 5.26981 18.519Z" fill="#222222"/>
</svg>
