<svg width="48" height="48" viewBox="0 0 48 48" fill="none" xmlns="http://www.w3.org/2000/svg">
<path d="M4 43.996V23.99M44 43.996V23.99M24 43.994V41.994M24 35.992V33.992" stroke="#025D8C" stroke-width="2" stroke-linecap="round" stroke-linejoin="round"/>
<path d="M11.45 11.308L13.11 12.828M13.11 12.828C13.43 12.29 13.98 11.348 14.164 10.762C15.762 5.62195 15.904 4.20595 18.37 4.00195H29.624C32.092 4.20595 32.232 5.62195 33.83 10.762C34.012 11.35 34.466 12.29 34.784 12.826M13.11 12.828C11.902 14.868 10.3 16.2 10.06 17.96C10.02 18.248 10.06 21.464 10.06 23.796C10.06 25.548 11.748 25.496 13.392 25.632C14.438 25.718 15.484 25.908 16.532 25.918C22.344 25.978 26.188 25.984 31.936 25.922C33.048 25.908 34.168 25.7 35.276 25.606C36.526 25.5 37.836 25.358 37.936 23.796C38.09 21.466 37.976 18.248 37.936 17.96C37.696 16.2 35.994 14.866 34.784 12.826M34.784 12.826H13.112M34.784 12.826L36.73 11.308M10.408 16.86L12.824 18.7M21.116 21.024H26.994M35.24 18.654L37.91 17.804M14.164 25.71L14.008 28.998M33.964 25.752V28.998" stroke="#025D8C" stroke-width="2" stroke-linecap="round"/>
</svg>
