<svg width="327" height="197" viewBox="0 0 327 197" fill="none" xmlns="http://www.w3.org/2000/svg">
<path d="M113.239 107.998L117.102 108.032L117.188 106.309L114.548 105.673L114.951 104.877L111.641 105.268L111.32 107.048L113.239 107.998Z" fill="#EAC1A4"/>
<path d="M90.1839 85.4602L95.9681 100.038L112.719 104.743L111.909 108.241L90.953 107.263L80.0378 91.0896L90.1839 85.4602Z" fill="#D67086"/>
<path d="M79.8997 89.2137C79.8298 89.216 79.7599 89.2186 79.6903 89.2215C76.3651 89.3735 72.3383 93.4709 70.0058 95.8891C63.9843 102.132 59.7789 109.285 56.6313 117.283C54.9363 121.589 53.44 125.966 52.0372 130.368C51.6496 131.583 48.9281 142.704 48.2681 142.783C55.0365 141.972 61.8506 141.337 68.5921 141.776C75.3335 142.216 82.0378 143.767 87.8176 147.104C90.7771 132.832 92.9647 118.054 93.6816 103.592C93.7675 101.862 94.0484 100.078 93.8746 98.3585C93.6748 96.3785 92.635 95.4865 91.4551 93.9831C91.0508 93.468 90.6434 92.9499 90.1491 92.5238C87.5439 90.2805 83.3838 89.1073 79.8997 89.2137Z" fill="#D67086"/>
<path d="M56.2856 137.697L63.3291 164.53L63.4866 184.309L66.9066 185.003L68.243 166.609L71.6002 132.921L56.2856 137.697Z" fill="#EBCEB1"/>
<path d="M66.9499 185.558L67.5022 187.564L67.0174 191.5L64.2458 191.505L63.2081 185.815L63.5299 184.864L66.9499 185.558Z" fill="#292949"/>
<path d="M83.1782 134.733L83.7997 157.92L80.5024 190.668L77.126 190.9L75.9131 160.878L69.0376 133.661L83.1782 134.733Z" fill="#EBCEB1"/>
<path d="M80.3967 190.121L84.9444 192.387L84.5834 194.381L76.5499 193.457L76.9361 190.588L80.3967 190.121Z" fill="#292949"/>
<path d="M84.1678 137.725L86.4564 164.513L84.1283 182.886L74.9827 182.399L73.3532 161.512L69.3983 138.74L70.0126 135.195L83.1929 135.376L84.1678 137.725Z" fill="#BABCBE"/>
<path d="M70.3031 162.565L69.2285 181.779L61.2792 181.397L61.4411 163.174L56.4288 140.289L57.5725 133.892L70.9419 134.673L70.3031 162.565Z" fill="#BABCBE"/>
<path d="M85.8271 139.936C77.6705 138.615 64.4541 135.416 56.2975 134.095C60.566 120.793 67.36 106.016 75.281 94.3316C76.7176 92.2123 78.5129 90.0013 81.084 89.4982C83.8385 88.9596 88.6679 90.6636 89.2027 93.5555C89.9855 97.7863 88.3607 103.621 87.8596 107.899C86.725 117.58 87.7992 130.372 85.8271 139.936Z" fill="#FFFFF0"/>
<path d="M94.8499 82.1706C95.9497 76.4847 88.5196 74.8564 84.7392 78.419C82.2489 80.7658 82.3634 85.6132 84.8879 87.9488C84.3973 88.5987 83.9357 89.2685 83.5065 89.9556C84.3465 90.3216 85.1865 90.6877 86.0265 91.0537C86.2866 91.1669 86.6009 91.2785 86.845 91.1376C86.993 91.0521 87.0717 90.8948 87.143 90.7461C87.3823 90.2449 87.6216 89.7438 87.8613 89.2427C87.9342 89.2489 88.0075 89.2541 88.0822 89.2577C89.9302 89.3435 91.7023 88.3462 92.8297 86.9694C93.9564 85.5923 94.5196 83.8795 94.8499 82.1706Z" fill="#EAC1A4"/>
<path d="M93.5347 83.3474C93.7498 85.2641 92.3868 86.9792 91.2001 88.4405C90.1481 89.7364 89.6773 90.6352 91.3985 91.3986C92.3684 91.8289 94.0846 92.6122 95.1519 92.0632C95.9602 91.6472 95.9814 89.8515 95.8113 89.1015C95.6814 88.5286 95.0763 88.1263 94.9627 87.5505C94.916 87.313 94.9583 87.0689 95.0101 86.8324C95.2215 85.8667 95.5897 84.931 96.0973 84.0681C96.4423 83.4821 96.8548 82.9216 97.0672 82.2825C97.3754 81.3556 96.9213 80.1081 96.7508 79.1629C96.4334 77.4044 94.5192 74.7386 92.1942 75.5875C91.6648 75.781 91.2816 76.2133 90.9455 76.643C90.7447 76.8994 90.5476 77.1699 90.4709 77.4798C90.1648 78.7163 91.3218 79.1747 92.0166 79.9365C92.8733 80.8764 93.3973 82.1243 93.5347 83.3474Z" fill="#292949"/>
<path d="M83.877 81.6588C83.5958 82.521 83.858 83.5983 83.1714 84.229C82.8656 84.5099 82.4354 84.6273 82.0529 84.8077C81.008 85.2997 80.2822 86.3408 80.2201 87.4366C78.3632 86.9822 76.5063 86.5277 74.6493 86.0736C74.3694 86.0051 74.0763 85.93 73.8669 85.7424C73.4193 85.3421 73.5516 84.655 73.7176 84.0958C74.0449 82.9948 74.4213 81.8212 75.3659 81.0996C75.804 80.7652 76.3361 80.5528 76.7732 80.2171C78.8739 78.6015 78.071 74.8372 80.454 73.6144C81.5173 73.0686 82.824 73.2816 84.0172 73.0826C86.0977 72.7355 87.7852 71.1392 89.8852 70.9193C93.8514 70.5043 96.4368 75.4659 93.5265 78.1007C91.1531 80.249 85.0095 78.1865 83.877 81.6588Z" fill="#292949"/>
<path d="M79.4572 90.0026C79.4572 90.0026 65.351 121.932 68.4663 130.077C71.5815 138.221 73.031 141.377 73.031 141.377L51.431 142.224C51.431 142.224 65.2181 95.5772 79.4572 90.0026Z" fill="#D67086"/>
<path d="M284.263 161.501L284.237 181.208L258.644 181.177C258.689 180.726 258.711 180.267 258.711 179.806C258.723 171.123 251.234 164.074 241.984 164.063C232.733 164.054 225.225 171.083 225.213 179.766C225.213 180.229 225.232 180.685 225.276 181.136L93.7181 180.979L93.7372 167.127C93.7491 157.91 99.356 149.503 108.183 145.462L133.331 138.061L134.58 138.051L147.061 112.166C150.645 104.733 158.241 100.002 166.575 100.012L241.611 100.101C249.506 100.11 252.073 109.494 254.919 114.98C258.159 121.213 261.398 127.449 264.637 133.683C265.25 134.865 265.865 136.047 266.478 137.226L266.801 137.224L277.548 146.799C281.843 150.627 284.27 155.941 284.263 161.501Z" fill="#474EBB"/>
<path d="M204.29 135.16L254.353 135.22L243.019 108.921C242.454 107.612 241.154 106.761 239.713 106.76L204.329 106.717L204.29 135.16Z" fill="#B4E1EF"/>
<path d="M195.765 106.707L167.088 106.673C161.011 106.665 155.472 110.116 152.859 115.536L143.433 135.087L195.727 135.149L195.765 106.707Z" fill="#B4E1EF"/>
<g opacity="0.2">
<path d="M244.386 115.282C245.051 115.617 245.715 115.954 246.38 116.289L243.279 109.093C242.714 107.784 241.414 106.934 239.974 106.932L227.715 106.917C233.253 109.738 238.833 112.487 244.386 115.282Z" fill="#FFFFF1"/>
<path d="M245.348 121.555C236.165 116.877 226.508 111.57 217.419 106.733L205.919 106.892C213.792 113.246 223.744 118.897 232.536 123.985C237.82 127.043 243.216 129.935 248.744 132.589C250.556 133.459 252.453 134.248 254.353 135.046L249.447 123.661C248.083 122.955 246.716 122.252 245.348 121.555Z" fill="#FFFFF1"/>
<path d="M186.717 123.716C182.856 121.366 178.854 119.199 174.828 117.11C170.75 114.994 166.616 112.87 162.342 111.12C160.934 110.542 159.508 110.006 158.088 109.463C155.883 110.978 154.059 113.045 152.858 115.536L152.767 115.726C157.09 118.569 161.442 121.376 165.736 124.242C172.087 128.482 179.098 131.694 185.957 135.138L195.727 135.149L195.733 129.995C192.73 127.898 189.861 125.628 186.717 123.716Z" fill="#FFFFF1"/>
</g>
<path opacity="0.1" d="M165.843 181.066C166.011 180.263 166.099 179.439 166.1 178.598C166.111 170.322 157.69 163.602 147.29 163.59C143.228 163.585 139.469 164.607 136.391 166.343C142.803 167.617 148.45 170.632 153.056 174.579C155.402 176.59 157.228 178.739 158.635 181.015L165.843 181.066Z" fill="black"/>
<path opacity="0.1" d="M264.496 181.184C264.66 180.381 264.746 179.557 264.747 178.717C264.759 170.44 256.536 163.72 246.382 163.708C242.417 163.703 238.747 164.726 235.742 166.462C242.002 167.736 247.515 170.751 252.012 174.698C254.303 176.708 256.086 178.857 257.459 181.133L264.496 181.184Z" fill="black"/>
<path d="M143.373 195.028C152.623 195.028 160.122 187.989 160.122 179.306C160.122 170.624 152.623 163.585 143.373 163.585C134.123 163.585 126.624 170.624 126.624 179.306C126.624 187.989 134.123 195.028 143.373 195.028Z" fill="#292949"/>
<path d="M143.373 188.23C148.623 188.23 152.879 184.235 152.879 179.306C152.879 174.378 148.623 170.383 143.373 170.383C138.123 170.383 133.866 174.378 133.866 179.306C133.866 184.235 138.123 188.23 143.373 188.23Z" fill="#FFFFF1"/>
<path opacity="0.1" d="M145.034 185.524C146.849 185.396 148.681 184.797 149.967 183.587C149.402 185.145 147.978 186.403 146.287 186.837C145.713 186.985 145.116 187.042 144.522 187.079C143.893 187.117 143.258 187.134 142.634 187.049C140.954 186.82 139.413 185.816 138.597 184.418C138.864 184.871 140.728 185.192 141.191 185.272C142.456 185.488 143.748 185.614 145.034 185.524Z" fill="black"/>
<path opacity="0.2" d="M258.711 179.806C258.711 180.267 258.689 180.725 258.644 181.177L225.275 181.137C225.232 180.685 225.213 180.229 225.213 179.766C225.224 171.083 232.732 164.054 241.983 164.063C251.234 164.074 258.723 171.123 258.711 179.806Z" fill="#474EBB"/>
<path d="M240.063 183.711C237.3 182.703 235.932 179.782 237.007 177.189C238.082 174.596 241.193 173.311 243.956 174.32C246.718 175.329 248.087 178.249 247.012 180.843C245.937 183.436 242.826 184.72 240.063 183.711Z" fill="#EFEFEA"/>
<path opacity="0.1" d="M242.947 182.527C243.972 182.455 245.007 182.117 245.733 181.433C245.414 182.313 244.61 183.023 243.655 183.268C243.33 183.351 242.994 183.384 242.659 183.404C242.303 183.426 241.945 183.435 241.593 183.387C240.644 183.258 239.774 182.691 239.313 181.902C239.464 182.158 240.516 182.339 240.778 182.384C241.492 182.506 242.221 182.578 242.947 182.527Z" fill="black"/>
<path d="M190.699 146.856L183.053 146.847C182.65 146.846 182.323 146.533 182.324 146.147L182.327 143.87C182.328 143.484 182.655 143.172 183.058 143.172L190.703 143.181C191.107 143.182 191.433 143.495 191.433 143.881L191.43 146.158C191.429 146.544 191.102 146.857 190.699 146.856Z" fill="#292949"/>
<path d="M136.33 139.479C136.33 139.479 119.87 115.42 116.997 111.905C114.125 108.391 108.618 107.359 103.584 110.573L104.858 112.768C104.858 112.768 110.367 109.681 114.149 112.753L132.98 139.571L136.33 139.479Z" fill="#474EBB"/>
<path d="M265.479 95.8669L263.784 94.5756L263.615 92.7754L263.19 92.6152L262.959 93.0981L262.363 91.6414L261.188 91.0205L259.562 91.735L258.72 93.2863L259.647 94.7261L261.514 95.6911L263.753 97.5533L265.479 95.8669Z" fill="#AA6755"/>
<path d="M265.154 94.4403L274.687 101.147L292.079 92.6012L294.078 103.15L276.525 109.964L271.573 109.412L261.312 96.619L265.154 94.4403Z" fill="#D67086"/>
<path d="M304.499 123.607C303.875 120.689 303.386 117.996 303.341 116.536C303.207 112.144 302.608 97.6375 302.608 97.6375L299.704 92.0889L299.167 92.0938C299.206 92.0896 299.244 92.0854 299.283 92.0811C299.229 91.6074 299.251 91.2146 299.329 90.8707C304.393 91.1565 309.584 93.6494 311.038 98.2773C311.157 98.6583 311.251 99.0482 311.285 99.4442C311.487 101.822 310.714 103.578 311.444 105.967C312.079 108.042 312.655 110.148 313.077 112.271C313.689 115.345 314.254 118.404 314.699 121.455C315.191 124.834 315.539 128.203 315.639 131.552C315.65 131.923 315.73 132.958 315.774 134.195C315.867 136.786 315.807 140.252 314.645 140.381C314.428 140.406 314.218 140.315 314.026 140.228C312.531 139.546 311.353 138.656 310.034 137.878L309.964 124.362L304.499 123.607Z" fill="#D67086"/>
<path d="M277.784 137.498C278.082 134.622 278.391 131.746 278.767 128.878C279.519 123.157 280.543 117.45 282.275 111.912C282.936 109.796 283.7 107.71 284.463 105.625C285.391 103.085 286.321 100.546 287.25 98.0061C288.404 94.8499 290.353 92.6262 293.766 91.5222C294.375 91.3251 295.017 91.1728 295.678 91.0615C295.694 91.1268 295.709 91.193 295.718 91.2625C295.758 91.5656 295.85 91.902 296.054 92.1215L293.814 92.1414C293.814 92.1414 287.495 112.869 287.263 116.442C287.175 117.8 286.881 120.764 286.555 123.887L283.123 124.362L282.976 136.307C282.784 136.359 282.593 136.409 282.403 136.456C281.314 136.727 280.429 137.472 279.524 138.057C278.188 138.919 277.602 139.261 277.784 137.498Z" fill="#D67086"/>
<path d="M325.179 184.125L326.356 186.38L322.485 190.765L320.066 189.766L321.914 184.962L324.305 182.431L325.179 184.125Z" fill="#292949"/>
<path d="M324.805 183.23L314.028 161.512L308.285 135.212L305.63 130.068L290.818 134.144L292.105 138.203L303.88 164.741L321.572 185.529L324.805 183.23Z" fill="#292949"/>
<path d="M285.724 126.407L284.188 157.509L287.815 188.624L291.521 188.75L294.962 160.27L301.133 131.882L285.724 126.407Z" fill="#292949"/>
<path d="M291.77 191.642L284.375 193.66L283.957 191.303L287.985 188.632L291.557 188.753L291.77 191.642Z" fill="#292949"/>
<path d="M286.555 123.888C286.038 128.83 285.438 134.17 285.438 134.17C285.438 134.17 288.212 134.231 292.226 134.512C291.929 134.506 291.632 134.498 291.335 134.496C288.544 134.473 285.649 135.586 282.976 136.308L283.123 124.362L286.555 123.888Z" fill="#D67086"/>
<path d="M305.286 136.015C307.199 136.109 307.437 135.776 307.437 135.776C307.437 135.776 305.711 129.268 304.499 123.607L309.964 124.362L310.034 137.878C309.571 137.605 309.09 137.345 308.572 137.113C307.533 136.649 306.424 136.296 305.286 136.015Z" fill="#D67086"/>
<path d="M285.79 124.654C286.145 121.455 286.465 118.42 286.561 117.029C286.813 113.37 293.69 92.1431 293.69 92.1431L296.128 92.1225C296.154 92.1496 296.182 92.176 296.213 92.1992C296.288 92.2569 296.375 92.3023 296.475 92.3316C296.674 92.3894 296.89 92.3685 297.098 92.3466C297.904 92.2625 298.71 92.1783 299.516 92.0941L300.099 92.0892L303.26 97.7715C303.26 97.7715 303.912 112.627 304.058 117.125C304.107 118.621 304.638 121.378 305.318 124.366C306.637 130.164 308.516 136.829 308.516 136.829C308.516 136.829 308.257 137.169 306.175 137.073C304.887 137.014 302.904 136.788 299.85 136.211C299.733 136.198 299.616 136.186 299.498 136.174C297.111 135.922 294.823 135.732 292.788 135.59C292.508 135.57 292.232 135.552 291.962 135.534C287.594 135.246 284.575 135.183 284.575 135.183C284.575 135.183 285.227 129.715 285.79 124.654Z" fill="white"/>
<path d="M292.132 84.456C292.277 83.8965 291.998 83.3269 291.865 82.7644C291.832 82.6222 291.826 82.4754 291.835 82.3269C292.899 82.1543 293.974 81.7831 294.756 81.4627C296.384 80.7955 299.555 80.0849 301.246 80.8728C302.583 81.496 302.172 83.4828 302.105 84.7395C302.087 85.0625 302.061 85.3917 302.14 85.7056C302.222 86.0289 302.437 86.2475 302.57 86.5196C302.421 87.0093 302.176 87.4738 301.779 87.8954C300.707 89.0307 299.618 89.5889 299.329 90.8704C299.251 91.2143 299.228 91.6071 299.282 92.0808C299.244 92.0851 299.205 92.0893 299.167 92.0935C298.426 92.1758 297.686 92.258 296.946 92.3402C296.754 92.3614 296.556 92.382 296.373 92.3255C296.281 92.2971 296.201 92.2527 296.132 92.1963C296.104 92.1735 296.078 92.1477 296.054 92.1216C295.85 91.9017 295.757 91.5657 295.718 91.2626C295.708 91.1928 295.694 91.1269 295.678 91.0616C295.388 89.892 294.012 89.3654 293.27 88.3276C292.429 87.1515 291.989 85.7816 291.799 84.3862C291.796 84.3624 291.793 84.3386 291.79 84.3148C291.899 84.3709 292.013 84.4182 292.132 84.456Z" fill="#AA6755"/>
<path d="M287.748 76.1382C288.301 75.7875 288.939 75.4965 289.275 74.939C289.536 74.506 289.575 73.9703 289.833 73.5364C290.301 72.7501 291.318 72.5192 292.201 72.2526C294.413 71.5861 295.603 70.8165 297.946 71.6699C299.611 72.2768 301.763 72.358 303.308 73.2431C303.954 73.6127 304.503 74.2065 304.954 74.8678C306.515 77.1591 306.89 80.3811 305.873 82.7709C305.645 83.306 305.356 83.798 305.047 84.2687C304.429 85.2106 303.766 86.3695 302.672 86.8304C302.654 86.7156 302.617 86.6145 302.57 86.5195C302.437 86.2474 302.222 86.0288 302.141 85.7055C302.061 85.3917 302.088 85.0625 302.105 84.7395C302.173 83.4828 302.583 81.4963 301.246 80.8728C299.556 80.0849 296.384 80.7955 294.756 81.4626C293.974 81.783 292.9 82.1543 291.835 82.3269C291.826 82.4753 291.832 82.6221 291.866 82.7644C291.998 83.3272 292.278 83.8965 292.132 84.456C292.013 84.4182 291.899 84.3705 291.79 84.3147C291.058 83.9389 290.556 83.1826 290.256 82.4019C289.931 82.3696 289.625 82.3024 289.347 82.1886C287.921 81.6016 286.762 79.2624 286.81 77.822C286.833 77.1477 287.106 76.5454 287.748 76.1382Z" fill="#353A85"/>
<path d="M258.815 47.8527L257.413 48.3101C257.189 48.3828 257.095 48.6334 257.202 48.8699L262.985 61.642C263.269 62.2716 263.304 62.9427 263.083 63.5313C262.861 64.1198 262.411 64.5508 261.817 64.7443L246.239 69.8224C245.644 70.0168 244.97 69.9525 244.341 69.641C243.712 69.3297 243.21 68.8113 242.925 68.182L237.29 55.7323C237.182 55.4961 236.915 55.3633 236.692 55.436L235.289 55.8934C235.066 55.9662 234.972 56.2168 235.079 56.4533L240.714 68.9023C241.282 70.1574 242.281 71.189 243.528 71.8066C244.776 72.4242 246.115 72.5508 247.3 72.1635L262.876 67.0855C264.061 66.6998 264.956 65.8447 265.395 64.6777C265.835 63.5107 265.764 62.1767 265.196 60.9213L259.414 48.1489C259.306 47.9127 259.039 47.7799 258.815 47.8527Z" fill="#BABCBE"/>
<path d="M307.062 146.516C310.987 147.785 315.266 145.827 316.618 142.143C317.331 140.201 317.088 138.169 316.124 136.493L314.887 134.911L269.695 77.1503C273.612 71.6122 273.718 63.668 269.324 56.9264C266.757 52.9872 263.08 50.1143 259.047 48.5248L265.077 61.8472C265.959 63.7962 265.174 65.8813 263.333 66.4803L247.756 71.5587C245.918 72.1603 243.688 71.0576 242.806 69.1085L236.897 56.051C234.338 61.3686 234.749 68.1621 238.583 74.0421C242.701 80.3622 249.677 83.9441 256.411 83.8674L303.165 143.625L303.771 144.402C304.615 145.341 305.733 146.086 307.062 146.516Z" fill="#BABCBE"/>
<path d="M305.659 146.401C309.584 147.67 313.862 145.712 315.214 142.028C315.927 140.086 315.685 138.053 314.72 136.378L313.483 134.796L268.291 77.0358C272.209 71.4977 272.315 63.5535 267.921 56.8119C265.353 52.8727 261.677 49.9998 257.643 48.4103L263.673 61.7327C264.555 63.6817 263.77 65.7668 261.929 66.3658L246.352 71.4442C244.514 72.0458 242.284 70.9431 241.402 68.994L235.494 55.9365C232.935 61.2541 233.345 68.0476 237.179 73.9276C241.298 80.2477 248.274 83.8296 255.008 83.7529L301.761 143.511L302.367 144.287C303.211 145.227 304.329 145.971 305.659 146.401Z" fill="#E6E6E8"/>
<path d="M258.21 48.0367L256.807 48.4941C256.584 48.5668 256.49 48.8174 256.597 49.0539L262.379 61.8256C262.664 62.4553 262.699 63.1264 262.477 63.7149C262.256 64.3035 261.806 64.7345 261.211 64.9279L245.634 70.0067C245.039 70.2011 244.365 70.1368 243.736 69.8253C243.107 69.514 242.605 68.9953 242.32 68.3663L236.684 55.9166C236.577 55.6804 236.31 55.5476 236.086 55.6203L234.684 56.0778C234.461 56.1505 234.367 56.4011 234.474 56.6373L240.109 69.0863C240.676 70.3414 241.676 71.373 242.923 71.9906C244.17 72.6082 245.51 72.7351 246.695 72.3475L262.271 67.2694C263.456 66.8835 264.351 66.0284 264.79 64.8617C265.229 63.695 265.158 62.361 264.59 61.1056L258.808 48.3332C258.701 48.0964 258.433 47.9636 258.21 48.0367Z" fill="#BABCBE"/>
<path d="M310.478 135.254L272.536 86.7577C271.832 85.8586 270.599 85.5946 269.794 86.1708L265.189 89.4695C264.384 90.0457 264.301 91.2528 265.004 92.1519L302.947 140.648C303.65 141.547 304.884 141.811 305.689 141.235L310.294 137.937C311.099 137.36 311.182 136.153 310.478 135.254Z" fill="#BABCBE"/>
<path d="M302.367 144.287L301.761 143.511C301.944 143.782 302.145 144.04 302.367 144.287Z" fill="#E6E6E8"/>
<path d="M285.502 116.991L283.334 117.235L281.839 116.096L281.421 116.271L281.63 116.763L280.101 116.151L278.807 116.511L278.222 118.104L278.824 119.751L280.571 120.128L282.608 119.541L285.591 119.328L285.502 116.991Z" fill="#AA6755"/>
<path d="M284.184 116.217L295.949 114.458L303.009 97.3154L310.975 102.78L303.974 119.354L300.106 122.308L283.178 120.323L284.184 116.217Z" fill="#D67086"/>
<path d="M179.736 190.236L181.072 192.43L180.905 193.841L178.901 194.154L175.895 192.43L176.897 186.474L179.736 185.69V190.236Z" fill="#2F2F3F"/>
<path d="M181.072 170.33C181.072 170.33 177.899 175.816 182.241 179.264C186.582 182.712 194.097 188.198 194.097 188.198L179.903 185.22L178.901 189.923C178.901 189.923 200.442 196.662 200.943 196.192C201.444 195.722 206.788 191.333 206.788 191.333L195.265 167.665L182.574 169.076L181.072 170.33Z" fill="#8CABEF"/>
<path d="M214.798 166.88C214.04 166.119 213.323 165.326 212.664 164.497L208.704 160.951L203.401 150.076L204.252 143.025C204.252 143.025 205.119 142.179 206.197 141.164C205.175 139.785 203.98 138.868 201.58 138.625C191.474 137.601 192.046 138.178 188.61 142.098C187.229 143.675 184.677 148.198 183.795 150.044C182.726 152.279 181.687 154.527 180.728 156.805C179.657 159.346 178.685 161.925 177.886 164.552C177.798 164.843 177.515 165.652 177.211 166.63C176.639 168.479 175.997 170.93 176.464 171.639C176.707 172.23 177.349 172.86 178.901 173.151C182.241 173.778 184.912 173.778 188.586 172.054C192.26 170.33 198.346 171.554 198.346 171.554C199.313 171.803 200.324 172.048 201.402 172.273C209.232 173.913 213.279 169.411 214.548 168.594C215.659 167.879 214.798 166.882 214.798 166.882L214.798 166.88Z" fill="white"/>
<path d="M227.52 145.03C227.516 144.955 228.21 144.403 228.3 144.316C228.576 144.047 228.833 143.755 228.991 143.409C229.158 143.044 229.206 142.643 229.253 142.248C229.281 142.01 229.309 141.772 229.336 141.534C229.347 141.444 229.359 141.35 229.41 141.272C229.455 141.203 229.528 141.154 229.6 141.107C229.968 140.869 230.357 140.66 230.763 140.483C230.767 140.91 230.517 142.655 231.087 142.703C232.386 142.813 233.712 142.736 235.017 142.721C235.112 142.72 235.213 142.721 235.292 142.771C235.35 142.807 235.388 142.866 235.422 142.924C235.849 143.648 236.019 144.504 235.898 145.324C235.89 145.375 235.881 145.428 235.851 145.472C235.815 145.524 235.754 145.555 235.697 145.584C234.907 145.98 234.097 146.327 233.283 146.675C232.981 146.803 232.747 147 232.448 147.132C232.302 147.197 231.89 147.457 231.727 147.436L228.225 146.982L227.52 145.03Z" fill="#EAC1A4"/>
<path d="M206.017 141.196L209.614 146.805L227.848 144.142L229.311 147.681L206.876 154.638L191.803 139.846L206.017 141.196Z" fill="white"/>
<path d="M211.108 191.176L214.469 193.28V194.726L211.528 195.251L206.906 193.148L207.326 191.176H211.108Z" fill="#2F2F3F"/>
<path d="M199.421 138.98C198.06 139.135 196.699 139.29 195.339 139.445C195.088 138.446 194.922 137.429 194.844 136.405C193.647 136.271 192.234 135.991 191.782 134.942C191.639 134.612 191.619 134.248 191.601 133.892C191.526 132.421 191.45 130.95 191.374 129.478C191.348 128.969 191.324 128.445 191.508 127.966C191.831 127.125 192.721 126.6 193.602 126.259C195.848 125.389 198.508 125.331 200.662 126.389C201.235 126.67 201.78 127.039 202.125 127.552C202.658 128.344 202.638 129.344 202.601 130.28C202.566 131.143 202.532 132.006 202.498 132.87C202.458 133.863 202.333 135.009 201.453 135.562C200.986 135.856 200.369 135.928 199.972 136.301C199.271 136.959 199.652 138.075 199.421 138.98Z" fill="#EAC1A4"/>
<path d="M194.956 172.196L215.471 163.276L220.147 168.919L212.131 191.96L206.787 191.333L208.29 177.539C208.29 177.539 203.782 181.144 195.766 180.831C192.092 177.383 192.092 177.539 192.092 177.539L194.956 172.196Z" fill="#8CABEF"/>
<path d="M235.88 164.809C245.13 164.809 252.629 157.771 252.629 149.088C252.629 140.405 245.13 133.367 235.88 133.367C226.63 133.367 219.131 140.405 219.131 149.088C219.131 157.771 226.63 164.809 235.88 164.809Z" fill="#292949"/>
<path d="M232.433 157.404C227.54 155.617 225.117 150.446 227.02 145.853C228.924 141.26 234.434 138.985 239.327 140.772C244.22 142.559 246.643 147.73 244.74 152.323C242.836 156.916 237.326 159.191 232.433 157.404Z" fill="#FFFFF1"/>
<path opacity="0.1" d="M237.541 155.306C239.356 155.178 241.188 154.579 242.474 153.369C241.909 154.927 240.485 156.184 238.794 156.619C238.219 156.766 237.623 156.824 237.029 156.86C236.4 156.899 235.765 156.915 235.141 156.83C233.461 156.601 231.92 155.597 231.104 154.2C231.371 154.653 233.235 154.974 233.698 155.053C234.963 155.27 236.255 155.396 237.541 155.306Z" fill="black"/>
<path d="M227.905 156.414L213.659 153.108L206.148 141.14L200.857 138.967L205.047 158.419L228.803 160.516L227.905 156.414Z" fill="white"/>
<path d="M199.716 126.716L192.745 128.55L192.966 134.219L188.095 132.426L186.767 122.661L201.266 116.192L207.396 123.284L202.026 127.883L199.716 126.716Z" fill="#292949"/>
<path d="M226.322 157.839C226.319 157.764 227.013 157.212 227.103 157.125C227.379 156.856 227.636 156.563 227.794 156.218C227.961 155.853 228.009 155.451 228.055 155.056C228.083 154.819 228.111 154.581 228.139 154.343C228.149 154.252 228.161 154.158 228.212 154.081C228.258 154.011 228.33 153.962 228.402 153.916C228.77 153.677 229.16 153.468 229.565 153.291C229.57 153.719 229.32 155.464 229.889 155.512C231.189 155.621 232.515 155.545 233.819 155.53C233.914 155.529 234.016 155.53 234.095 155.579C234.153 155.616 234.19 155.675 234.224 155.732C234.652 156.456 234.821 157.312 234.7 158.132C234.693 158.184 234.683 158.237 234.653 158.281C234.617 158.332 234.557 158.364 234.499 158.393C233.71 158.789 232.899 159.136 232.085 159.483C231.784 159.612 231.549 159.808 231.25 159.941C231.104 160.005 230.693 160.266 230.529 160.244L227.027 159.791L226.322 157.839Z" fill="#EAC1A4"/>
<path d="M245.686 191.791L236.624 183.285C236.294 182.976 236.294 182.469 236.624 182.159L236.707 182.081C237.037 181.771 237.577 181.771 237.907 182.081L246.969 190.587C247.299 190.897 247.299 191.404 246.969 191.713L246.885 191.792C246.556 192.101 246.016 192.101 245.686 191.791Z" fill="#C9C9C9"/>
<path d="M236.624 182.166C236.333 182.516 236.549 183.215 237.132 183.762L245.178 191.315C245.761 191.862 246.506 192.065 246.878 191.791L236.624 182.166Z" fill="#ADADAD"/>
<path d="M238.386 191.791L247.448 183.285C247.778 182.976 247.778 182.469 247.448 182.159L247.364 182.081C247.035 181.771 246.495 181.771 246.165 182.081L237.103 190.587C236.773 190.897 236.773 191.403 237.103 191.713L237.186 191.791C237.516 192.101 238.056 192.101 238.386 191.791Z" fill="#C9C9C9"/>
<path d="M247.447 182.166C247.739 182.516 247.523 183.215 246.94 183.762L238.894 191.315C238.311 191.862 237.566 192.065 237.193 191.791L247.447 182.166Z" fill="#ADADAD"/>
<path d="M250.85 194.393H233.069C232.165 194.393 231.426 193.685 231.426 192.819C231.426 191.954 232.165 191.247 233.069 191.247H250.85C251.754 191.247 252.493 191.955 252.493 192.819C252.493 193.685 251.754 194.393 250.85 194.393Z" fill="#C9C9C9"/>
<path d="M231.434 192.93C231.517 193.744 232.503 194.393 233.7 194.393H250.219C251.416 194.393 252.403 193.744 252.486 192.93H231.434Z" fill="#ADADAD"/>
<path d="M105.892 122.771C105.289 122.751 104.701 122.802 104.138 122.915C103.635 119.369 100.347 116.567 96.2442 116.427C93.4736 116.332 90.9704 117.474 89.3872 119.303C88.6031 117.621 86.7472 116.446 84.5926 116.465C82.2093 116.487 80.2201 117.962 79.6552 119.945C78.8388 119.166 77.6964 118.661 76.4115 118.617C73.8131 118.529 71.6248 120.351 71.5239 122.689C71.5218 122.735 71.5222 122.78 71.5218 122.825C71.064 122.721 70.5874 122.657 70.0965 122.64C66.3277 122.511 63.1539 125.155 63.0076 128.545C62.8876 131.322 64.8373 133.738 67.6174 134.592C67.4756 135.093 67.388 135.614 67.3648 136.152C67.1872 140.264 70.7497 143.725 75.3213 143.881C77.6193 143.959 79.734 143.187 81.2926 141.878C81.5347 144.252 83.7649 146.1 86.4625 146.075C89.0766 146.052 91.2161 144.278 91.5223 142.005C92.7158 143.399 94.5618 144.323 96.6693 144.395C99.7331 144.5 102.403 142.772 103.374 140.301C104.023 140.645 104.774 140.854 105.58 140.882C108.179 140.97 110.367 139.148 110.468 136.81C110.514 135.751 110.122 134.77 109.44 134.003C111.184 132.944 112.364 131.179 112.451 129.143C112.598 125.753 109.661 122.9 105.892 122.771ZM101.987 134.122C101.978 134.113 101.969 134.103 101.961 134.094C101.972 134.101 101.983 134.107 101.995 134.113C101.992 134.116 101.99 134.119 101.987 134.122Z" fill="#F7F7F7"/>
<path opacity="0.2" d="M109.06 123.597C109.639 124.541 109.948 125.635 109.898 126.792C109.81 128.827 108.631 130.592 106.887 131.651C107.569 132.418 107.961 133.4 107.915 134.458C107.814 136.796 105.626 138.619 103.027 138.53C102.221 138.502 101.47 138.293 100.821 137.949C99.8504 140.42 97.1797 142.148 94.1163 142.043C92.0088 141.971 90.1627 141.047 88.9692 139.654C88.6631 141.927 86.5235 143.7 83.9094 143.724C83.1192 143.731 82.3696 143.576 81.698 143.296C82.4974 144.947 84.3342 146.094 86.4629 146.075C89.0769 146.052 91.2161 144.279 91.5226 142.005C92.7161 143.398 94.5622 144.323 96.6697 144.395C99.7334 144.499 102.404 142.772 103.374 140.301C104.024 140.645 104.774 140.853 105.581 140.881C108.179 140.97 110.367 139.147 110.468 136.81C110.514 135.751 110.123 134.769 109.44 134.003C111.184 132.944 112.364 131.178 112.452 129.143C112.553 126.793 111.172 124.702 109.06 123.597Z" fill="#5D66D3"/>
<path d="M137.253 14.4268C135.881 14.3798 134.546 14.4963 133.267 14.7537C132.123 6.6976 124.653 0.331156 115.331 0.0124098C109.036 -0.202589 103.348 2.39208 99.7512 6.54785C97.9699 2.7242 93.7525 0.0551484 88.8578 0.0988659C83.4428 0.147477 78.9233 3.50002 77.6395 8.00619C75.7842 6.23432 73.1885 5.08853 70.2697 4.9887C64.3658 4.78675 59.394 8.9285 59.1649 14.2395C59.1605 14.3433 59.1612 14.4464 59.1601 14.5495C58.12 14.3123 57.0373 14.1668 55.9215 14.1286C47.3586 13.8359 40.1473 19.8429 39.8149 27.546C39.5425 33.8556 43.972 39.3435 50.289 41.284C49.9665 42.4223 49.7678 43.6069 49.7153 44.8277C49.312 54.1715 57.4058 62.0342 67.7926 62.3891C73.0143 62.5676 77.8191 60.813 81.3598 57.8383C81.91 63.2322 86.9773 67.43 93.1062 67.3749C99.0455 67.3217 103.907 63.2928 104.602 58.1273C107.314 61.2929 111.508 63.3933 116.297 63.5571C123.257 63.7949 129.324 59.8702 131.53 54.2554C133.005 55.0374 134.711 55.5111 136.543 55.5738C142.447 55.7757 147.419 51.634 147.648 46.3233C147.752 43.9182 146.862 41.6873 145.313 39.9457C149.275 37.5396 151.955 33.5287 152.155 28.9045C152.488 21.2014 145.815 14.7194 137.253 14.4268ZM128.38 40.2159C128.359 40.1953 128.339 40.1738 128.319 40.1532C128.345 40.1679 128.371 40.1816 128.397 40.1963C128.391 40.2028 128.385 40.209 128.38 40.2159Z" fill="#F7F7F7"/>
<path opacity="0.2" d="M144.45 16.3021C145.764 18.4485 146.467 20.9339 146.354 23.5622C146.154 28.1864 143.474 32.1974 139.512 34.6034C141.062 36.3453 141.951 38.5759 141.847 40.981C141.618 46.292 136.646 50.4334 130.742 50.2315C128.91 50.1688 127.205 49.6948 125.729 48.9131C123.523 54.5279 117.456 58.453 110.496 58.2148C105.707 58.051 101.513 55.9506 98.801 52.785C98.1053 57.9509 93.2442 61.9794 87.3049 62.0326C85.5093 62.0486 83.8065 61.6975 82.2799 61.0607C84.0959 64.8122 88.2693 67.4187 93.1062 67.3749C99.0455 67.3218 103.906 63.2929 104.602 58.1274C107.314 61.293 111.508 63.3934 116.297 63.5572C123.257 63.795 129.324 59.8699 131.53 54.2554C133.005 55.0375 134.711 55.5112 136.543 55.5738C142.447 55.7758 147.419 51.634 147.648 46.3233C147.752 43.9182 146.862 41.6873 145.313 39.9458C149.275 37.54 151.955 33.5288 152.155 28.9045C152.386 23.5641 149.248 18.8133 144.45 16.3021Z" fill="#5D66D3"/>
<path d="M89.0776 127.933L92.5007 129.308L93.0383 127.519L90.8623 125.933L91.4333 125.233L88.3883 124.499L87.6271 126.266L89.0776 127.933Z" fill="#EBCEB1"/>
<path d="M89.4864 124.319L87.8313 127.728C87.5405 128.257 75.6294 122.035 74.6555 121.398C72.5111 119.995 68.1891 117.867 68.1891 117.867C66.2814 114.885 63.9891 108.022 63.4655 105.498C63.2544 104.482 64.2775 102.631 64.5305 101.649C64.8513 100.403 66.5278 99.9884 67.4019 99.9542C69.1944 99.8837 72.8207 94.9638 74.1724 96.4264C74.6579 96.9517 73.4578 109.574 73.8509 110.996C74.3449 112.783 89.8351 123.451 89.4864 124.319Z" fill="#D67086"/>
<path d="M65.2907 78.299C64.3719 78.2677 63.4771 78.3457 62.62 78.5179C61.854 73.1205 56.8491 68.8548 50.6033 68.6414C46.3856 68.4972 42.5752 70.2358 40.165 73.02C38.9715 70.4579 36.146 68.6698 32.8665 68.6991C29.2385 68.7318 26.2106 70.978 25.3505 73.9971C24.1075 72.8102 22.3682 72.0422 20.4127 71.9753C16.4572 71.8403 13.1261 74.615 12.9724 78.1734C12.9693 78.2429 12.97 78.3121 12.9693 78.3812C12.2725 78.2224 11.5471 78.1248 10.7994 78.0994C5.06229 77.9033 0.23058 81.9279 0.00796653 87.0889C-0.17442 91.3164 2.7932 94.9932 7.02558 96.2934C6.80944 97.0561 6.67649 97.8496 6.64138 98.6678C6.37138 104.928 11.7939 110.196 18.7532 110.434C22.2516 110.553 25.4708 109.378 27.8432 107.385C28.2117 110.998 31.6068 113.811 35.7131 113.774C39.6925 113.739 42.9492 111.039 43.4156 107.578C45.2323 109.699 48.0424 111.107 51.2507 111.216C55.9143 111.376 59.9793 108.746 61.4572 104.984C62.4458 105.508 63.5885 105.826 64.8158 105.868C68.7714 106.003 72.1024 103.228 72.2562 99.67C72.3257 98.0587 71.7301 96.5641 70.6917 95.3971C73.3464 93.7851 75.1423 91.0978 75.2759 87.9994C75.4982 82.8378 71.0279 78.4951 65.2907 78.299ZM59.3463 95.5776C59.3323 95.5639 59.3193 95.5495 59.3054 95.5355C59.3224 95.5453 59.3401 95.5547 59.3575 95.5642C59.3538 95.5688 59.3497 95.573 59.3463 95.5776Z" fill="#F7F7F7"/>
<path opacity="0.2" d="M70.1132 79.5554C70.9938 80.9935 71.4649 82.6587 71.3889 84.4195C71.2552 87.5179 69.4593 90.2049 66.8047 91.8169C67.8431 92.9839 68.439 94.4784 68.3691 96.0898C68.2157 99.6479 64.8847 102.423 60.9291 102.288C59.7018 102.245 58.5591 101.928 57.5705 101.404C56.0926 105.166 52.0276 107.796 47.364 107.636C44.1557 107.526 41.3456 106.119 39.5289 103.998C39.0625 107.459 35.8058 110.158 31.8267 110.194C30.6236 110.205 29.4826 109.969 28.4602 109.543C29.6769 112.056 32.4731 113.803 35.7138 113.773C39.6932 113.738 42.9499 111.038 43.4159 107.577C45.2326 109.698 48.0431 111.106 51.251 111.215C55.9147 111.375 59.9797 108.745 61.4575 104.983C62.4461 105.507 63.5889 105.825 64.8162 105.867C68.7717 106.002 72.1027 103.227 72.2565 99.669C72.326 98.0574 71.7305 96.5632 70.6921 95.3962C73.3467 93.7842 75.1426 91.0968 75.2763 87.9988C75.43 84.4211 73.328 81.2379 70.1132 79.5554Z" fill="#5D66D3"/>
</svg>
