<svg width="292" height="292" viewBox="0 0 292 292" fill="none" xmlns="http://www.w3.org/2000/svg">
<g filter="url(#filter0_d_600_881)">
<rect x="50" y="30" width="192" height="192" rx="96" fill="url(#paint0_linear_600_881)" shape-rendering="crispEdges"/>
<rect x="54" y="34" width="184" height="184" rx="92" stroke="white" stroke-width="8" shape-rendering="crispEdges"/>
<path d="M146 117.562C145.333 117.562 144.698 117.438 144.094 117.188C143.49 116.938 142.938 116.583 142.438 116.125L122.375 96.0625C121.917 95.5625 121.562 95.0104 121.312 94.4062C121.062 93.8021 120.938 93.1667 120.938 92.5C120.938 91.8333 121.062 91.1875 121.312 90.5625C121.562 89.9375 121.917 89.3958 122.375 88.9375L142.438 68.875C142.938 68.375 143.49 68.0104 144.094 67.7812C144.698 67.5521 145.333 67.4375 146 67.4375C146.667 67.4375 147.312 67.5521 147.938 67.7812C148.562 68.0104 149.104 68.375 149.562 68.875L169.625 88.9375C170.125 89.3958 170.49 89.9375 170.719 90.5625C170.948 91.1875 171.062 91.8333 171.062 92.5C171.062 93.1667 170.948 93.8021 170.719 94.4062C170.49 95.0104 170.125 95.5625 169.625 96.0625L149.562 116.125C149.104 116.583 148.562 116.938 147.938 117.188C147.312 117.438 146.667 117.562 146 117.562ZM143.5 95H148.5V80H143.5V95ZM146 102.5C146.708 102.5 147.302 102.26 147.781 101.781C148.26 101.302 148.5 100.708 148.5 100C148.5 99.2917 148.26 98.6979 147.781 98.2188C147.302 97.7396 146.708 97.5 146 97.5C145.292 97.5 144.698 97.7396 144.219 98.2188C143.74 98.6979 143.5 99.2917 143.5 100C143.5 100.708 143.74 101.302 144.219 101.781C144.698 102.26 145.292 102.5 146 102.5Z" fill="white"/>
<path d="M116.912 156.102C114.992 156.102 113.261 155.763 111.719 155.086C110.177 154.408 108.911 153.436 107.921 152.169C106.931 150.903 106.304 149.395 106.04 147.643L111.152 146.887C111.512 148.374 112.256 149.52 113.384 150.324C114.512 151.128 115.796 151.53 117.236 151.53C118.04 151.53 118.82 151.404 119.576 151.152C120.332 150.9 120.953 150.528 121.439 150.036C121.925 149.545 122.168 148.939 122.168 148.219C122.168 147.954 122.129 147.699 122.051 147.453C121.973 147.208 121.844 146.977 121.664 146.761C121.484 146.544 121.229 146.34 120.899 146.148C120.569 145.957 120.152 145.783 119.648 145.627L112.916 143.646C112.412 143.502 111.827 143.298 111.161 143.035C110.495 142.771 109.85 142.393 109.226 141.9C108.602 141.408 108.083 140.757 107.669 139.947C107.255 139.137 107.048 138.115 107.048 136.879C107.048 135.139 107.486 133.693 108.362 132.54C109.238 131.388 110.408 130.53 111.872 129.966C113.336 129.402 114.956 129.126 116.732 129.138C118.52 129.163 120.116 129.469 121.52 130.056C122.924 130.644 124.1 131.499 125.048 132.621C125.996 133.743 126.68 135.115 127.1 136.734L121.808 137.635C121.616 136.795 121.262 136.087 120.746 135.511C120.23 134.935 119.615 134.497 118.901 134.196C118.187 133.896 117.44 133.734 116.66 133.711C115.892 133.687 115.169 133.792 114.491 134.026C113.813 134.259 113.261 134.598 112.835 135.043C112.409 135.486 112.196 136.014 112.196 136.626C112.196 137.19 112.37 137.65 112.718 138.004C113.066 138.358 113.504 138.643 114.032 138.859C114.56 139.074 115.1 139.254 115.652 139.398L120.152 140.623C120.824 140.803 121.568 141.04 122.384 141.334C123.2 141.628 123.983 142.036 124.733 142.557C125.483 143.079 126.101 143.766 126.587 144.619C127.073 145.471 127.316 146.55 127.316 147.858C127.316 149.25 127.025 150.465 126.443 151.503C125.861 152.542 125.078 153.399 124.094 154.077C123.11 154.755 121.997 155.262 120.755 155.599C119.513 155.934 118.232 156.102 116.912 156.102ZM146 156.102C143.408 156.102 141.173 155.538 139.295 154.41C137.417 153.282 135.971 151.704 134.957 149.677C133.943 147.649 133.436 145.29 133.436 142.602C133.436 139.914 133.943 137.556 134.957 135.528C135.971 133.501 137.417 131.923 139.295 130.794C141.173 129.666 143.408 129.102 146 129.102C148.592 129.102 150.827 129.666 152.705 130.794C154.583 131.923 156.029 133.501 157.043 135.528C158.057 137.556 158.564 139.914 158.564 142.602C158.564 145.29 158.057 147.649 157.043 149.677C156.029 151.704 154.583 153.282 152.705 154.41C150.827 155.538 148.592 156.102 146 156.102ZM146 151.495C147.644 151.518 149.012 151.164 150.104 150.433C151.196 149.701 152.015 148.663 152.561 147.318C153.107 145.975 153.38 144.402 153.38 142.602C153.38 140.802 153.107 139.242 152.561 137.922C152.015 136.602 151.196 135.576 150.104 134.844C149.012 134.112 147.644 133.734 146 133.711C144.356 133.687 142.988 134.041 141.896 134.773C140.804 135.505 139.985 136.543 139.439 137.887C138.893 139.23 138.62 140.802 138.62 142.602C138.62 144.402 138.893 145.963 139.439 147.282C139.985 148.603 140.804 149.629 141.896 150.36C142.988 151.092 144.356 151.471 146 151.495ZM175.556 156.102C173.636 156.102 171.905 155.763 170.363 155.086C168.821 154.408 167.555 153.436 166.565 152.169C165.575 150.903 164.948 149.395 164.684 147.643L169.796 146.887C170.156 148.374 170.9 149.52 172.028 150.324C173.156 151.128 174.44 151.53 175.88 151.53C176.684 151.53 177.464 151.404 178.22 151.152C178.976 150.9 179.597 150.528 180.083 150.036C180.569 149.545 180.812 148.939 180.812 148.219C180.812 147.954 180.773 147.699 180.695 147.453C180.617 147.208 180.488 146.977 180.308 146.761C180.128 146.544 179.873 146.34 179.543 146.148C179.213 145.957 178.796 145.783 178.292 145.627L171.56 143.646C171.056 143.502 170.471 143.298 169.805 143.035C169.139 142.771 168.494 142.393 167.87 141.9C167.246 141.408 166.727 140.757 166.313 139.947C165.899 139.137 165.692 138.115 165.692 136.879C165.692 135.139 166.13 133.693 167.006 132.54C167.882 131.388 169.052 130.53 170.516 129.966C171.98 129.402 173.6 129.126 175.376 129.138C177.164 129.163 178.76 129.469 180.164 130.056C181.568 130.644 182.744 131.499 183.692 132.621C184.64 133.743 185.324 135.115 185.744 136.734L180.452 137.635C180.26 136.795 179.906 136.087 179.39 135.511C178.874 134.935 178.259 134.497 177.545 134.196C176.831 133.896 176.084 133.734 175.304 133.711C174.536 133.687 173.813 133.792 173.135 134.026C172.457 134.259 171.905 134.598 171.479 135.043C171.053 135.486 170.84 136.014 170.84 136.626C170.84 137.19 171.014 137.65 171.362 138.004C171.71 138.358 172.148 138.643 172.676 138.859C173.204 139.074 173.744 139.254 174.296 139.398L178.796 140.623C179.468 140.803 180.212 141.04 181.028 141.334C181.844 141.628 182.627 142.036 183.377 142.557C184.127 143.079 184.745 143.766 185.231 144.619C185.717 145.471 185.96 146.55 185.96 147.858C185.96 149.25 185.669 150.465 185.087 151.503C184.505 152.542 183.722 153.399 182.738 154.077C181.754 154.755 180.641 155.262 179.399 155.599C178.157 155.934 176.876 156.102 175.556 156.102Z" fill="white"/>
<path d="M87.7178 180.562V173.287H88.6455V176.432H92.4639V173.287H93.3916V180.562H92.4639V177.252H88.6455V180.562H87.7178ZM100.099 180.66C99.4769 180.66 98.9227 180.51 98.4361 180.208C97.9494 179.907 97.5661 179.478 97.2862 178.919C97.0062 178.361 96.8662 177.698 96.8662 176.93C96.8662 176.158 97.0062 175.493 97.2862 174.935C97.5661 174.377 97.9494 173.946 98.4361 173.644C98.9227 173.341 99.4769 173.189 100.099 173.189C100.72 173.189 101.274 173.341 101.759 173.644C102.244 173.946 102.626 174.377 102.904 174.935C103.182 175.493 103.321 176.158 103.321 176.93C103.321 177.698 103.182 178.361 102.904 178.919C102.626 179.478 102.244 179.907 101.759 180.208C101.274 180.51 100.72 180.66 100.099 180.66ZM100.099 179.801C100.532 179.801 100.923 179.691 101.273 179.471C101.623 179.251 101.901 178.928 102.108 178.5C102.315 178.071 102.418 177.548 102.418 176.93C102.418 176.305 102.315 175.778 102.108 175.35C101.901 174.922 101.623 174.598 101.273 174.378C100.923 174.159 100.532 174.049 100.099 174.049C99.6625 174.049 99.2686 174.16 98.917 174.381C98.5655 174.602 98.2863 174.927 98.0796 175.355C97.8729 175.783 97.7696 176.308 97.7696 176.93C97.7696 177.548 97.8729 178.071 98.0796 178.497C98.2863 178.924 98.5655 179.247 98.917 179.469C99.2686 179.69 99.6625 179.801 100.099 179.801ZM106.796 180.562V173.287H107.724V179.742H111.093V180.562H106.796ZM116.721 180.562H114.963V179.742H116.662C117.255 179.742 117.745 179.629 118.134 179.403C118.523 179.177 118.814 178.852 119.006 178.429C119.198 178.006 119.294 177.499 119.294 176.91C119.294 176.327 119.199 175.827 119.008 175.409C118.818 174.99 118.535 174.669 118.159 174.444C117.783 174.22 117.313 174.107 116.75 174.107H114.924V173.287H116.813C117.523 173.287 118.129 173.432 118.632 173.722C119.135 174.011 119.521 174.427 119.79 174.969C120.058 175.511 120.192 176.158 120.192 176.91C120.192 177.669 120.057 178.32 119.787 178.866C119.517 179.411 119.123 179.83 118.605 180.123C118.088 180.416 117.46 180.562 116.721 180.562ZM115.378 173.287V180.562H114.45V173.287H115.378ZM128.079 174.107V173.287H133.577V174.107H131.297V180.562H130.369V174.107H128.079ZM139.586 180.66C138.964 180.66 138.41 180.51 137.923 180.208C137.437 179.907 137.053 179.478 136.773 178.919C136.494 178.361 136.354 177.698 136.354 176.93C136.354 176.158 136.494 175.493 136.773 174.935C137.053 174.377 137.437 173.946 137.923 173.644C138.41 173.341 138.964 173.189 139.586 173.189C140.208 173.189 140.761 173.341 141.246 173.644C141.731 173.946 142.113 174.377 142.391 174.935C142.669 175.493 142.809 176.158 142.809 176.93C142.809 177.698 142.669 178.361 142.391 178.919C142.113 179.478 141.731 179.907 141.246 180.208C140.761 180.51 140.208 180.66 139.586 180.66ZM139.586 179.801C140.019 179.801 140.41 179.691 140.76 179.471C141.11 179.251 141.389 178.928 141.595 178.5C141.802 178.071 141.905 177.548 141.905 176.93C141.905 176.305 141.802 175.778 141.595 175.35C141.389 174.922 141.11 174.598 140.76 174.378C140.41 174.159 140.019 174.049 139.586 174.049C139.15 174.049 138.756 174.16 138.404 174.381C138.053 174.602 137.774 174.927 137.567 175.355C137.36 175.783 137.257 176.308 137.257 176.93C137.257 177.548 137.36 178.071 137.567 178.497C137.774 178.924 138.053 179.247 138.404 179.469C138.756 179.69 139.15 179.801 139.586 179.801ZM150.695 174.107V173.287H156.193V174.107H153.913V180.562H152.985V174.107H150.695ZM159.551 180.562V173.287H162.041C162.607 173.287 163.074 173.384 163.44 173.578C163.806 173.771 164.078 174.037 164.255 174.376C164.433 174.715 164.522 175.1 164.522 175.533C164.522 175.966 164.433 176.349 164.255 176.681C164.078 177.013 163.807 177.272 163.442 177.459C163.078 177.647 162.612 177.74 162.046 177.74H160.068V176.915H162.002C162.386 176.915 162.695 176.859 162.927 176.747C163.16 176.634 163.33 176.475 163.438 176.268C163.545 176.061 163.599 175.816 163.599 175.533C163.599 175.243 163.545 174.992 163.438 174.779C163.33 174.566 163.159 174.4 162.925 174.281C162.69 174.162 162.38 174.103 161.992 174.103H160.479V180.562H159.551ZM163.73 180.562L161.973 177.286H163.018L164.805 180.562H163.73ZM168.914 173.287V180.562H167.986V173.287H168.914ZM175.646 180.66C174.998 180.66 174.43 180.509 173.941 180.206C173.453 179.903 173.072 179.473 172.799 178.915C172.525 178.356 172.389 177.695 172.389 176.93C172.389 176.158 172.525 175.493 172.799 174.935C173.072 174.377 173.45 173.946 173.932 173.644C174.413 173.341 174.965 173.189 175.587 173.189C175.971 173.189 176.33 173.246 176.664 173.36C176.997 173.474 177.296 173.637 177.56 173.849C177.823 174.06 178.042 174.312 178.216 174.603C178.39 174.894 178.51 175.216 178.575 175.567H177.618C177.543 175.333 177.444 175.123 177.32 174.938C177.197 174.752 177.049 174.592 176.878 174.459C176.708 174.326 176.515 174.224 176.3 174.154C176.085 174.084 175.849 174.049 175.592 174.049C175.165 174.049 174.778 174.159 174.43 174.378C174.081 174.598 173.805 174.922 173.6 175.35C173.395 175.778 173.292 176.305 173.292 176.93C173.292 177.548 173.395 178.071 173.602 178.497C173.809 178.924 174.09 179.247 174.444 179.469C174.799 179.69 175.2 179.801 175.646 179.801C176.056 179.801 176.417 179.714 176.73 179.54C177.042 179.365 177.285 179.118 177.459 178.797C177.634 178.477 177.721 178.098 177.721 177.662L177.999 177.716H175.836V176.905H178.629V177.701C178.629 178.303 178.5 178.826 178.243 179.269C177.986 179.711 177.634 180.054 177.186 180.296C176.738 180.539 176.225 180.66 175.646 180.66ZM185.106 180.66C184.459 180.66 183.891 180.509 183.402 180.206C182.914 179.903 182.533 179.473 182.26 178.915C181.986 178.356 181.85 177.695 181.85 176.93C181.85 176.158 181.986 175.493 182.26 174.935C182.533 174.377 182.911 173.946 183.393 173.644C183.874 173.341 184.426 173.189 185.048 173.189C185.432 173.189 185.791 173.246 186.125 173.36C186.458 173.474 186.757 173.637 187.021 173.849C187.284 174.06 187.503 174.312 187.677 174.603C187.851 174.894 187.971 175.216 188.036 175.567H187.079C187.004 175.333 186.905 175.123 186.781 174.938C186.658 174.752 186.51 174.592 186.339 174.459C186.168 174.326 185.976 174.224 185.761 174.154C185.546 174.084 185.31 174.049 185.053 174.049C184.626 174.049 184.239 174.159 183.891 174.378C183.542 174.598 183.266 174.922 183.061 175.35C182.855 175.778 182.753 176.305 182.753 176.93C182.753 177.548 182.856 178.071 183.063 178.497C183.27 178.924 183.55 179.247 183.905 179.469C184.26 179.69 184.661 179.801 185.106 179.801C185.517 179.801 185.878 179.714 186.19 179.54C186.503 179.365 186.746 179.118 186.92 178.797C187.095 178.477 187.182 178.098 187.182 177.662L187.46 177.716H185.297V176.905H188.09V177.701C188.09 178.303 187.961 178.826 187.704 179.269C187.447 179.711 187.095 180.054 186.647 180.296C186.199 180.539 185.686 180.66 185.106 180.66ZM191.594 180.562V173.287H196.027V174.107H192.522V176.48H195.788V177.301H192.522V179.742H196.071V180.562H191.594ZM199.605 180.562V173.287H202.095C202.661 173.287 203.127 173.384 203.494 173.578C203.86 173.771 204.132 174.037 204.309 174.376C204.487 174.715 204.575 175.1 204.575 175.533C204.575 175.966 204.487 176.349 204.309 176.681C204.132 177.013 203.861 177.272 203.496 177.459C203.132 177.647 202.666 177.74 202.1 177.74H200.122V176.915H202.056C202.44 176.915 202.748 176.859 202.981 176.747C203.214 176.634 203.384 176.475 203.491 176.268C203.599 176.061 203.652 175.816 203.652 175.533C203.652 175.243 203.599 174.992 203.491 174.779C203.384 174.566 203.213 174.4 202.979 174.281C202.744 174.162 202.433 174.103 202.046 174.103H200.532V180.562H199.605ZM203.784 180.562L202.026 177.286H203.071L204.858 180.562H203.784Z" fill="white" fill-opacity="0.8"/>
</g>
<defs>
<filter id="filter0_d_600_881" x="0" y="0" width="292" height="292" filterUnits="userSpaceOnUse" color-interpolation-filters="sRGB">
<feFlood flood-opacity="0" result="BackgroundImageFix"/>
<feColorMatrix in="SourceAlpha" type="matrix" values="0 0 0 0 0 0 0 0 0 0 0 0 0 0 0 0 0 0 127 0" result="hardAlpha"/>
<feOffset dy="20"/>
<feGaussianBlur stdDeviation="25"/>
<feComposite in2="hardAlpha" operator="out"/>
<feColorMatrix type="matrix" values="0 0 0 0 0.721569 0 0 0 0 0.113725 0 0 0 0 0.0901961 0 0 0 0.3 0"/>
<feBlend mode="normal" in2="BackgroundImageFix" result="effect1_dropShadow_600_881"/>
<feBlend mode="normal" in="SourceGraphic" in2="effect1_dropShadow_600_881" result="shape"/>
</filter>
<linearGradient id="paint0_linear_600_881" x1="50" y1="30" x2="242" y2="222" gradientUnits="userSpaceOnUse">
<stop stop-color="#025D8C"/>
<stop offset="1" stop-color="white"/>
</linearGradient>
</defs>
</svg>
