<svg width="252" height="189" viewBox="0 0 252 189" fill="none" xmlns="http://www.w3.org/2000/svg">
<path d="M189.851 59.0764L126 0L62.1487 59.0764L66.2553 62.8472L62.1487 66.618L126 125.694L189.851 66.618L185.745 62.8472L189.851 59.0764ZM64.0508 59.0764L126 1.75972L187.949 59.0764L184.797 61.9925L126 7.59823L67.203 61.9673L64.0508 59.0764ZM183.843 62.8472L126 116.343L68.1574 62.8472L126 9.35166L183.843 62.8472ZM187.949 66.618L126 123.935L64.0508 66.618L67.203 63.7019L126 118.096L184.797 63.7271L187.949 66.618Z" fill="#025D8C"/>
<path d="M8.0771 159.81C12.2248 159.81 16.1269 156.723 16.1269 150.727C16.1269 145.037 12.5522 141.694 8.0771 141.694C3.84754 141.694 0 144.705 0 150.727C0 156.468 3.57466 159.81 8.0771 159.81ZM8.0771 159.3C6.13969 159.3 4.91175 156.289 4.91175 150.727C4.91175 145.369 5.97596 142.205 8.0771 142.205C9.98722 142.205 11.2152 145.216 11.2152 150.727C11.2152 156.136 10.1782 159.3 8.0771 159.3ZM10.0145 150.727C9.27775 150.217 8.62285 149.604 8.0771 148.915C7.53135 149.604 6.87645 150.217 6.13969 150.727C6.87645 151.237 7.53135 151.85 8.0771 152.539C8.62285 151.85 9.27775 151.237 10.0145 150.727ZM33.7546 141.822H28.2971L29.2522 143.072V158.79C29.2522 159.122 28.9247 159.377 28.2971 159.555V159.683H30.753V159.555C30.1254 159.377 29.7979 159.122 29.7979 158.79V143.761L42.0773 159.683H42.6231V142.715C42.6231 142.383 42.9505 142.128 43.5781 141.95V141.822H41.1223V141.95C41.7499 142.128 42.0773 142.383 42.0773 142.715V152.59L33.7546 141.822ZM80.3344 159.683H87.1562V159.555C86.5286 159.377 86.2012 159.122 86.2012 158.79V146.185C86.2012 144.858 85.6009 143.659 84.5094 142.817L83.8818 142.332H86.6924L89.312 144.272C89.5303 144.425 89.7486 144.501 89.9941 144.501H91.1129V141.822H76.6506V144.501H77.7694C78.0149 144.501 78.2332 144.425 78.4515 144.272L81.0711 142.332H81.2894V158.79C81.2894 159.122 80.962 159.377 80.3344 159.555V159.683ZM103.965 142.715V158.79C103.965 159.122 103.638 159.377 103.01 159.555V159.683H109.832V159.555C109.205 159.377 108.877 159.122 108.877 158.79V151.008H114.062V158.79C114.062 159.122 113.734 159.377 113.107 159.555V159.683H119.929V159.555C119.301 159.377 118.973 159.122 118.973 158.79V142.715C118.973 142.383 119.301 142.128 119.929 141.95V141.822H113.107V141.95C113.734 142.128 114.062 142.383 114.062 142.715V150.497H108.877V142.715C108.877 142.383 109.205 142.128 109.832 141.95V141.822H103.01V141.95C103.638 142.128 103.965 142.383 103.965 142.715ZM132.099 159.683H144.924V157.004H143.805C143.559 157.004 143.341 157.08 143.123 157.233L140.503 159.173H135.646L136.274 158.688C137.365 157.846 137.966 156.647 137.966 155.32V151.186H138.648C139.903 151.186 140.858 152.13 141.568 153.355H141.704V148.507H141.568C140.858 149.732 139.903 150.676 138.648 150.676H137.966V144.22C138.129 143.2 139.166 142.332 140.367 142.332H140.503L143.123 144.272C143.341 144.425 143.559 144.501 143.805 144.501H144.924V141.822H140.367C139.385 141.822 138.511 142.256 137.966 142.945V141.822H132.099V141.95C132.726 142.128 133.054 142.383 133.054 142.715V158.79C133.054 159.122 132.726 159.377 132.099 159.555V159.683ZM182.635 159.683H188.502L188.093 158.101L190.821 147.614L193.741 158.815C193.823 159.147 193.632 159.377 193.004 159.555V159.683H198.871L198.462 158.101L202.473 142.69C202.555 142.358 203.019 142.128 203.647 141.95V141.822H201.191V141.95C201.818 142.128 202.009 142.358 201.927 142.69L198.189 157.055L194.451 142.69C194.369 142.358 194.56 142.128 195.187 141.95V141.822H188.366V141.95C188.993 142.128 189.457 142.358 189.539 142.69L190.549 146.568L187.82 157.055L184.081 142.69C184 142.358 184.191 142.128 184.818 141.95V141.822H177.996V141.95C178.624 142.128 179.088 142.358 179.17 142.69L183.372 158.815C183.454 159.147 183.263 159.377 182.635 159.555V159.683ZM213.224 156.111L212.406 158.815C212.297 159.147 211.806 159.377 211.178 159.555V159.683H213.634V159.555C213.006 159.377 212.842 159.147 212.952 158.815L213.77 156.111C214.343 154.223 215.135 153.304 217.481 153.304H220.265L221.956 158.815C222.066 159.147 221.902 159.377 221.274 159.555V159.683H228.096V159.555C227.469 159.377 226.977 159.147 226.868 158.815L221.956 142.69C221.847 142.358 222.011 142.128 222.639 141.95V141.822H215.817V141.95C216.444 142.128 216.936 142.358 217.045 142.69L217.181 143.149L214.998 150.37C214.725 151.569 214.834 152.487 215.926 152.972C214.398 153.355 213.716 154.427 213.224 156.111ZM215.544 150.37L217.454 144.042L220.128 152.794H218.109C215.462 152.794 215.162 152.003 215.544 150.37ZM248.371 147.512L250.663 142.639C250.799 142.332 251.372 142.128 252 141.95V141.822H249.544V141.95C250.172 142.128 250.254 142.332 250.117 142.639L247.825 147.512C246.897 149.477 245.124 149.043 244.359 147.435H244.332L242.149 142.639C242.013 142.332 242.095 142.128 242.722 141.95V141.822H235.9V141.95C236.528 142.128 237.101 142.332 237.237 142.639L241.494 152.028V158.79C241.494 159.122 241.167 159.377 240.539 159.555V159.683H247.361V159.555C246.734 159.377 246.406 159.122 246.406 158.79V152.028L244.987 148.89C246.079 149.604 247.579 149.375 248.371 147.512Z" fill="#025D8C"/>
<path d="M35.4738 186.214L36.804 185.742C36.8904 185.972 37.0041 186.195 37.1451 186.412C37.2861 186.633 37.4657 186.826 37.684 186.992C37.9069 187.162 38.1752 187.299 38.489 187.401C38.7983 187.498 39.1758 187.547 39.6215 187.547C39.9125 187.547 40.2059 187.511 40.5015 187.439C40.7971 187.367 41.0631 187.243 41.2996 187.069C41.5407 186.895 41.734 186.665 41.8795 186.38C42.0296 186.095 42.1046 185.744 42.1046 185.327C42.1046 184.889 42.0455 184.528 41.9272 184.243C41.809 183.958 41.6248 183.707 41.3747 183.49C41.12 183.269 40.7903 183.074 40.3855 182.903C39.9853 182.733 39.5032 182.538 38.9393 182.317C37.9433 181.938 37.2088 181.479 36.7358 180.939C36.2674 180.403 36.0331 179.735 36.0331 178.936C36.0331 178.498 36.1173 178.087 36.2856 177.705C36.4584 177.322 36.7085 176.99 37.036 176.71C37.368 176.429 37.7705 176.208 38.2434 176.046C38.7164 175.889 39.2622 175.81 39.8807 175.81C40.9222 175.81 41.7385 176.008 42.3297 176.403C42.9164 176.799 43.3689 177.335 43.6873 178.011L42.3297 178.457C42.116 177.977 41.8272 177.605 41.4634 177.341C41.0995 177.077 40.5833 176.946 39.9148 176.946C39.2281 176.946 38.6618 177.097 38.2161 177.399C37.775 177.7 37.5544 178.179 37.5544 178.834C37.5544 179.131 37.5976 179.395 37.684 179.625C37.7705 179.854 37.916 180.063 38.1206 180.25C38.3208 180.433 38.5868 180.607 38.9188 180.773C39.2463 180.939 39.6578 181.109 40.1536 181.283C40.6311 181.458 41.0836 181.647 41.5111 181.851C41.9432 182.055 42.3206 182.308 42.6435 182.61C42.971 182.908 43.2302 183.269 43.4212 183.694C43.6168 184.115 43.7146 184.632 43.7146 185.245C43.7146 185.717 43.6123 186.165 43.4076 186.59C43.2029 187.016 42.9187 187.386 42.5549 187.7C42.191 188.015 41.759 188.264 41.2587 188.447C40.7539 188.634 40.2013 188.727 39.601 188.727C38.9916 188.727 38.4549 188.655 37.991 188.51C37.5317 188.37 37.1337 188.181 36.7972 187.943C36.4652 187.709 36.1946 187.441 35.9854 187.139C35.7716 186.841 35.6011 186.533 35.4738 186.214ZM61.0558 177.341H57.8563V176.059H65.872V177.341H62.6248V188.466H61.0558V177.341ZM79.9387 188.466H78.3833L82.3537 176.059H84.2638L88.2068 188.466H86.5491L85.5736 185.142H80.9279L79.9387 188.466ZM83.2883 177.405L81.2826 184.026H85.2393L83.2883 177.405ZM104.15 183.503L100.35 176.059H102.069L104.955 181.991L107.888 176.059H109.416L105.698 183.503V188.466H104.15V183.503ZM141.697 186.214L143.027 185.742C143.114 185.972 143.228 186.195 143.369 186.412C143.509 186.633 143.689 186.826 143.907 186.992C144.13 187.162 144.399 187.299 144.712 187.401C145.022 187.498 145.399 187.547 145.845 187.547C146.14 187.547 146.434 187.511 146.725 187.439C147.02 187.367 147.287 187.243 147.523 187.069C147.764 186.895 147.957 186.665 148.103 186.38C148.253 186.095 148.328 185.744 148.328 185.327C148.328 184.889 148.269 184.528 148.151 184.243C148.032 183.958 147.848 183.707 147.598 183.49C147.348 183.269 147.02 183.074 146.616 182.903C146.211 182.733 145.727 182.538 145.163 182.317C144.167 181.938 143.432 181.479 142.959 180.939C142.491 180.403 142.257 179.735 142.257 178.936C142.257 178.498 142.341 178.087 142.509 177.705C142.682 177.322 142.934 176.99 143.266 176.71C143.594 176.429 143.994 176.208 144.467 176.046C144.94 175.889 145.486 175.81 146.104 175.81C147.15 175.81 147.966 176.008 148.553 176.403C149.14 176.799 149.592 177.335 149.911 178.011L148.553 178.457C148.344 177.977 148.055 177.605 147.687 177.341C147.323 177.077 146.807 176.946 146.138 176.946C145.451 176.946 144.885 177.097 144.44 177.399C143.998 177.7 143.778 178.179 143.778 178.834C143.778 179.131 143.821 179.395 143.907 179.625C143.994 179.854 144.139 180.063 144.344 180.25C144.549 180.433 144.815 180.607 145.142 180.773C145.474 180.939 145.886 181.109 146.377 181.283C146.854 181.458 147.307 181.647 147.735 181.851C148.167 182.055 148.546 182.308 148.874 182.61C149.197 182.908 149.456 183.269 149.651 183.694C149.842 184.115 149.938 184.632 149.938 185.245C149.938 185.717 149.836 186.165 149.631 186.59C149.426 187.016 149.142 187.386 148.778 187.7C148.419 188.015 147.987 188.264 147.482 188.447C146.977 188.634 146.425 188.727 145.824 188.727C145.215 188.727 144.678 188.655 144.214 188.51C143.755 188.37 143.359 188.181 143.027 187.943C142.691 187.709 142.418 187.441 142.209 187.139C141.995 186.841 141.824 186.533 141.697 186.214ZM165.54 188.466H163.984L167.948 176.059H169.865L173.801 188.466H172.15L171.168 185.142H166.529L165.54 188.466ZM168.882 177.405L166.877 184.026H170.833L168.882 177.405ZM190.098 188.466H188.529V176.059H194.887V177.239H190.098V181.921H194.151V183.095H190.098V188.466ZM216.526 188.466H210.073V176.059H216.526V177.239H211.642V181.596H215.974V182.731H211.642V187.299H216.526V188.466Z" fill="#025D8C"/>
<path d="M125.742 77.7273C133.308 77.7273 140.43 72.0931 140.43 61.1502C140.43 50.7624 133.908 44.6625 125.742 44.6625C118.02 44.6625 111 50.1563 111 61.1502C111 71.6273 117.522 77.7273 125.742 77.7273ZM125.742 76.8021C122.202 76.8021 119.964 71.3019 119.964 61.1502C119.964 51.3686 121.908 45.5941 125.742 45.5941C129.228 45.5941 131.466 51.0878 131.466 61.1502C131.466 71.0212 129.576 76.8021 125.742 76.8021ZM129.276 61.1502C127.932 60.2186 126.738 59.102 125.742 57.8386C124.746 59.102 123.552 60.2186 122.202 61.1502C123.552 62.0818 124.746 63.1984 125.742 64.4554C126.738 63.1984 127.932 62.0818 129.276 61.1502Z" fill="#025D8C"/>
</svg>
